<svg xmlns="http://www.w3.org/2000/svg" viewBox="288 50 954 921" fill="none"><title>personaje con gorra</title>
<g transform="translate(0 1024) scale(0.1 -0.1)" stroke="none">
<path fill="#fffdf7" d="M7590 9575 c0 -23 3 -25 50 -25 47 0 50 2 50 25 0 23 -3 25 -50 25 -47 0 -50 -2 -50 -25z M7850 9575 c0 -24 3 -25 55 -25 52 0 55 1 55 25 0 24 -3 25 -55 25 -52 0 -55 -1 -55 -25z M7465 9583 c-212 -27 -576 -128 -838 -232 l-78 -31 -37 29 c-110 88 -308 104 -502 40 -69 -22 -211 -85 -220 -97 -3 -4 -23 -16 -44 -27 -21 -11 -52 -32 -69 -47 -16 -16 -32 -28 -36 -28 -12 0 -91 -85 -91 -98 0 -7 -4 -12 -10 -12 -43 0 -77 -167 -59 -290 4 -22 -3 -29 -56 -53 -33 -16 -61 -33 -63 -38 -2 -5 -10 -9 -18 -9 -8 0 -14 -4 -14 -10 0 -5 -7 -10 -15 -10 -8 0 -15 -4 -15 -10 0 -5 -7 -10 -15 -10 -8 0 -24 -9 -35 -20 -11 -11 -24 -20 -30 -20 -5 0 -10 -4 -10 -10 0 -5 -7 -10 -15 -10 -9 0 -18 -7 -21 -15 -4 -8 -13 -15 -20 -15 -8 0 -17 -7 -20 -15 -4 -8 -13 -15 -20 -15 -8 0 -17 -7 -20 -15 -4 -8 -12 -15 -20 -15 -7 0 -19 -8 -26 -18 -7 -10 -21 -21 -31 -25 -11 -4 -21 -16 -24 -27 -3 -11 -13 -20 -23 -20 -19 0 -50 -30 -50 -48 0 -7 -8 -12 -18 -12 -25 0 -82 -61 -82 -88 0 -17 -6 -22 -25 -22 -20 0 -25 -5 -25 -25 0 -20 5 -25 25 -25 20 0 25 5 25 25 0 19 5 25 23 25 24 0 87 57 87 78 0 7 8 12 18 12 21 0 52 29 52 48 0 7 9 12 20 12 11 0 25 9 32 20 7 11 18 20 25 20 7 0 18 9 25 20 7 11 19 20 26 20 7 0 15 7 18 15 4 8 13 15 20 15 8 0 17 7 20 15 4 8 13 15 20 15 8 0 17 7 20 15 4 8 12 15 20 15 8 0 14 5 14 10 0 6 6 10 13 10 7 0 23 9 35 20 12 11 26 20 32 20 5 0 10 5 10 10 0 6 6 10 14 10 8 0 16 3 18 8 4 9 75 42 91 42 7 0 28 13 47 29 35 29 35 29 21 77 -27 93 -26 120 8 188 24 50 130 176 147 176 5 0 107 72 114 80 12 13 191 90 260 112 152 47 337 24 405 -52 10 -11 24 -20 32 -20 7 0 13 -4 13 -10 0 -18 35 -10 134 30 277 113 746 240 887 240 24 0 29 4 29 25 0 26 -18 29 -105 18z M7980 9568 c0 -24 4 -26 68 -32 197 -20 645 -171 720 -243 6 -6 22 -15 34 -19 12 -4 28 -13 36 -20 7 -8 20 -14 28 -14 8 0 14 -4 14 -10 0 -5 7 -10 15 -10 8 0 15 -4 15 -10 0 -5 4 -10 9 -10 6 0 22 -11 37 -25 15 -14 33 -25 39 -25 7 0 15 -7 19 -15 3 -8 11 -15 18 -15 7 0 19 -9 26 -20 7 -11 23 -20 37 -20 17 0 25 -6 25 -17 0 -23 49 -73 72 -73 10 0 18 -6 18 -13 0 -20 33 -47 58 -47 16 0 22 6 22 23 0 27 -28 57 -53 57 -9 0 -17 5 -17 12 0 21 -53 68 -76 68 -15 0 -24 7 -26 21 -2 12 -12 27 -23 33 -11 6 -24 17 -28 24 -4 6 -12 12 -17 12 -5 0 -21 11 -36 25 -15 14 -33 25 -40 25 -8 0 -14 5 -14 10 0 6 -7 10 -15 10 -8 0 -15 5 -15 10 0 6 -7 10 -15 10 -8 0 -15 4 -15 10 0 5 -11 12 -25 16 -14 3 -25 10 -25 14 0 4 -15 13 -32 21 -18 7 -35 16 -38 21 -28 39 -390 173 -560 207 -186 37 -240 39 -240 9z M7595 9230 c-214 -13 -537 -88 -875 -204 -57 -20 -110 -36 -118 -36 -8 0 -38 -11 -66 -25 -28 -13 -94 -42 -146 -64 -242 -101 -345 -156 -357 -192 -6 -19 -28 -81 -48 -139 -124 -350 -116 -852 21 -1420 55 -229 256 -864 329 -1042 14 -34 53 -18 178 75 714 528 1028 762 1432 1067 586 441 1065 764 1345 905 89 45 89 49 -2 182 -442 641 -998 935 -1693 893z M11220 8925 c0 -25 0 -25 105 -25 105 0 105 0 105 25 0 25 0 25 -105 25 -105 0 -105 0 -105 -25z M11110 8915 c0 -23 4 -25 45 -25 41 0 45 2 45 25 0 23 -4 25 -45 25 -41 0 -45 -2 -45 -25z M11470 8916 c0 -22 4 -26 29 -26 101 0 442 -113 459 -152 2 -5 10 -8 17 -8 7 0 15 -7 19 -15 3 -8 15 -15 26 -15 11 0 20 -6 20 -14 0 -8 15 -27 33 -43 53 -49 135 -202 144 -272 5 -36 9 -41 31 -41 24 0 25 1 18 57 -8 64 -85 239 -110 249 -9 3 -16 12 -16 18 0 17 -53 66 -72 66 -9 0 -18 9 -21 20 -3 11 -12 20 -21 20 -9 0 -16 5 -16 10 0 6 -5 10 -10 10 -6 0 -20 9 -31 19 -50 47 -288 122 -431 137 -68 7 -68 7 -68 -20z M10903 8900 c-219 -47 -422 -111 -668 -210 -193 -77 -425 -187 -425 -201 0 -5 -7 -9 -15 -9 -8 0 -15 -4 -15 -10 0 -5 -6 -10 -14 -10 -8 0 -16 -4 -18 -9 -8 -21 -46 -22 -53 -1 -3 11 -11 20 -16 20 -5 0 -9 7 -9 15 0 8 -4 15 -10 15 -5 0 -10 7 -10 15 0 8 -4 15 -10 15 -5 0 -10 5 -10 10 0 15 -71 120 -81 120 -5 0 -9 6 -9 13 0 7 -15 30 -34 50 -19 21 -37 44 -40 53 -3 9 -15 18 -26 21 -11 3 -20 13 -20 23 0 10 -13 29 -28 42 -15 13 -31 31 -35 41 -11 29 -57 22 -57 -8 0 -14 7 -28 15 -31 8 -4 15 -12 15 -18 0 -16 42 -56 58 -56 7 0 12 -9 12 -20 0 -11 9 -25 20 -32 11 -7 20 -18 20 -23 0 -6 16 -28 35 -49 19 -21 35 -40 35 -42 0 -11 74 -114 81 -114 5 0 9 -7 9 -15 0 -8 5 -15 10 -15 6 0 10 -6 10 -14 0 -8 3 -16 8 -18 4 -1 16 -21 27 -43 26 -52 71 -61 103 -21 11 15 25 26 31 26 6 0 11 5 11 10 0 6 6 10 14 10 8 0 16 3 18 8 2 4 48 29 103 56 351 172 773 320 1063 372 94 17 102 20 102 41 0 30 -27 29 -197 -7z M5649 8545 c-26 -13 -62 -42 -80 -63 -19 -21 -59 -56 -89 -77 -304 -213 -631 -540 -819 -818 -463 -687 -564 -1450 -311 -2347 93 -330 119 -400 146 -400 57 0 768 451 1289 817 434 305 396 251 305 444 -150 317 -313 830 -384 1209 -101 538 -96 868 19 1134 56 131 35 159 -76 101z M11015 8550 c-105 -16 -216 -41 -425 -95 -30 -8 -95 -28 -145 -45 -49 -18 -110 -38 -135 -46 -46 -13 -187 -70 -294 -118 -32 -14 -64 -26 -71 -26 -7 0 -33 -11 -56 -25 -24 -14 -55 -25 -69 -25 -45 0 -69 -12 -72 -33 -3 -20 -242 -156 -275 -157 -7 0 -40 -18 -75 -41 -35 -22 -126 -79 -203 -126 -340 -207 -956 -640 -1395 -981 -75 -58 -339 -254 -438 -325 -51 -37 -101 -67 -112 -67 -43 0 -170 -98 -170 -131 0 -31 0 -31 57 -24 225 28 694 195 1038 370 262 133 404 219 920 553 72 46 149 96 173 110 24 15 77 48 118 75 91 59 433 267 438 267 2 0 34 18 71 40 213 130 515 263 670 295 140 29 295 -51 295 -153 0 -14 12 -50 28 -81 61 -125 13 -389 -94 -512 -23 -26 -18 -59 10 -59 50 0 314 146 466 258 151 111 178 133 278 227 220 208 305 353 310 531 4 123 -2 143 -62 217 -104 128 -427 180 -781 127z M12230 8263 c0 -71 -15 -168 -36 -231 -17 -51 -85 -204 -95 -212 -10 -9 -89 -129 -89 -136 0 -3 -11 -15 -25 -26 -14 -11 -25 -25 -25 -31 0 -7 -9 -18 -20 -25 -32 -20 -27 -64 6 -60 15 2 32 12 38 23 6 10 21 28 34 38 12 10 22 25 22 33 0 8 4 14 9 14 11 0 91 122 91 138 0 7 4 12 8 12 37 0 119 265 128 418 7 102 7 102 -19 102 -26 0 -27 -2 -27 -57z M4667 8132 c-27 -28 -47 -57 -47 -70 0 -15 -6 -22 -18 -22 -25 0 -62 -41 -62 -67 0 -14 -7 -23 -21 -25 -12 -2 -27 -12 -33 -23 -6 -11 -17 -24 -23 -28 -7 -4 -13 -17 -13 -27 0 -12 -7 -20 -16 -20 -9 0 -18 -9 -21 -19 -3 -11 -11 -22 -19 -25 -8 -3 -14 -12 -14 -20 0 -7 -7 -16 -15 -20 -8 -3 -15 -12 -15 -21 0 -8 -4 -15 -10 -15 -5 0 -10 -7 -10 -15 0 -8 -4 -15 -9 -15 -10 0 -144 -204 -164 -248 -6 -15 -15 -29 -18 -32 -18 -14 -143 -282 -184 -395 -75 -208 -145 -504 -145 -616 0 -34 3 -39 23 -39 21 0 23 6 35 103 26 219 114 499 235 752 45 94 86 175 90 180 23 29 167 258 167 266 0 5 5 9 10 9 6 0 10 6 10 14 0 8 7 16 15 20 8 3 15 12 15 20 0 7 7 16 15 20 8 3 15 12 15 20 0 7 7 16 15 20 8 3 15 15 15 26 0 11 7 20 15 20 9 0 19 8 22 18 4 9 15 23 25 30 10 7 18 24 18 38 0 17 6 24 18 24 25 0 62 41 62 68 0 14 6 22 18 22 25 0 112 91 112 118 0 38 -41 27 -93 -26z M11812 7467 c-34 -34 -62 -68 -62 -75 0 -6 -9 -12 -19 -12 -11 0 -30 -13 -43 -28 -13 -15 -32 -31 -42 -35 -10 -4 -20 -16 -23 -27 -3 -11 -14 -20 -24 -20 -11 0 -22 -7 -25 -15 -4 -8 -12 -15 -19 -15 -6 0 -24 -11 -39 -25 -15 -14 -29 -25 -31 -25 -4 0 -210 -133 -230 -148 -5 -4 -88 -46 -182 -92 -202 -99 -213 -113 -115 -144 31 -9 74 -26 94 -37 20 -10 43 -19 50 -19 7 0 31 -14 52 -30 22 -17 48 -30 58 -30 10 0 18 -6 18 -13 0 -7 23 -34 50 -60 28 -26 50 -51 50 -57 0 -5 6 -13 13 -17 27 -17 87 -179 87 -235 0 -23 4 -28 25 -28 22 0 25 4 25 38 0 62 -60 242 -81 242 -5 0 -9 7 -9 15 0 9 -7 18 -15 21 -8 4 -15 11 -15 17 0 17 -84 97 -102 97 -10 0 -18 6 -18 13 0 13 -88 77 -106 77 -5 0 -27 9 -49 20 -22 11 -47 20 -57 20 -37 0 -14 17 102 73 65 32 125 63 132 70 7 7 27 18 43 25 44 19 215 133 215 143 0 5 6 9 14 9 7 0 24 11 38 24 14 12 33 26 42 29 9 4 16 13 16 22 0 8 9 15 20 15 11 0 25 9 32 20 7 11 18 20 24 20 14 0 54 43 54 58 0 7 8 12 18 12 26 0 142 121 142 148 0 42 -41 27 -108 -41z M3800 6295 c0 -63 1 -65 25 -65 24 0 25 2 25 65 0 63 -1 65 -25 65 -24 0 -25 -2 -25 -65z M11430 6183 c0 -59 -77 -257 -107 -276 -7 -4 -13 -12 -13 -18 0 -5 -18 -25 -40 -45 -22 -20 -40 -43 -40 -50 0 -8 -9 -14 -20 -14 -11 0 -20 -4 -20 -10 0 -5 -6 -10 -14 -10 -8 0 -16 -4 -18 -8 -1 -5 -28 -17 -58 -28 -55 -19 -55 -19 -58 -66 -2 -38 1 -49 18 -61 25 -17 63 -115 153 -398 122 -381 192 -668 229 -936 12 -86 14 -93 35 -93 35 0 27 74 -38 395 -57 277 -248 920 -323 1086 -6 13 1 20 28 29 20 6 36 16 36 21 0 5 7 9 15 9 8 0 15 5 15 10 0 6 7 10 15 10 8 0 15 7 15 15 0 8 8 15 18 15 19 0 82 59 82 77 0 6 7 13 15 17 8 3 15 12 15 21 0 8 4 15 9 15 14 0 79 152 90 214 17 92 15 106 -14 106 -21 0 -25 -5 -25 -27z M3800 5995 c0 -63 1 -65 25 -65 24 0 25 2 25 65 0 63 -1 65 -25 65 -24 0 -25 -2 -25 -65z M3814 5834 c23 -249 194 -895 286 -1073 18 -37 18 -37 -48 -65 -116 -48 -252 -116 -252 -126 0 -6 -7 -10 -15 -10 -8 0 -15 -4 -15 -9 0 -5 -13 -23 -30 -41 -52 -56 -69 -160 -25 -160 21 0 25 5 25 28 0 16 13 47 30 70 17 23 30 44 30 48 0 19 114 81 268 144 121 50 121 51 67 185 -126 314 -275 882 -275 1053 0 28 -3 32 -26 32 -27 0 -27 0 -20 -76z M3690 4314 c0 -27 23 -94 32 -94 4 0 8 -7 8 -16 0 -9 9 -18 20 -21 11 -3 20 -12 20 -19 0 -8 10 -18 23 -23 14 -6 -3 -7 -45 -4 -91 8 -318 -63 -318 -99 0 -4 -7 -8 -15 -8 -8 0 -15 -4 -15 -10 0 -5 -5 -10 -12 -10 -25 0 -78 -51 -78 -76 0 -36 37 -31 83 11 21 19 42 35 47 35 4 0 10 3 12 8 11 26 196 97 255 97 110 0 156 -70 108 -166 -95 -187 -96 -366 -2 -377 36 -4 37 29 2 70 -39 46 -31 101 37 248 49 106 50 173 3 228 -25 30 -25 30 18 15 64 -23 211 1 298 48 21 11 21 10 15 -37 -18 -124 -71 -282 -118 -351 -15 -23 -28 -44 -28 -46 0 -14 -83 -85 -123 -106 -52 -27 -68 -71 -26 -71 22 0 91 37 97 52 2 4 8 8 13 8 12 0 69 51 69 61 0 4 11 20 24 34 53 57 105 201 135 377 32 180 29 185 -89 129 -116 -55 -181 -67 -250 -46 -32 10 -61 24 -64 31 -3 8 -12 14 -21 14 -8 0 -15 7 -15 15 0 9 -6 18 -14 21 -8 3 -19 25 -26 50 -13 46 -60 68 -60 28z M11460 4100 c0 -47 2 -50 25 -50 23 0 25 3 25 50 0 47 -2 50 -25 50 -23 0 -25 -3 -25 -50z M11470 3940 c0 -68 1 -70 25 -70 24 0 25 2 25 70 0 68 -1 70 -25 70 -24 0 -25 -2 -25 -70z M3212 3858 c-7 -7 -12 -20 -12 -30 0 -10 -7 -18 -15 -18 -8 0 -15 -7 -15 -15 0 -8 -5 -15 -11 -15 -15 0 -105 -196 -118 -258 -16 -79 -15 -92 12 -92 20 0 25 8 35 60 12 57 106 261 124 268 4 2 8 11 8 20 0 10 10 22 23 27 33 15 37 65 5 65 -13 0 -29 -5 -36 -12z M11470 3610 c0 -68 1 -70 25 -70 24 0 25 2 25 70 0 68 -1 70 -25 70 -24 0 -25 -2 -25 -70z M11460 3470 c0 -36 3 -40 25 -40 23 0 25 4 25 40 0 36 -2 40 -25 40 -22 0 -25 -4 -25 -40z M3020 3360 c0 -57 1 -60 25 -60 24 0 25 3 25 60 0 57 -1 60 -25 60 -24 0 -25 -3 -25 -60z M11437 3307 c-30 -185 -95 -419 -164 -587 -39 -95 -164 -343 -175 -348 -5 -2 -8 -8 -8 -13 0 -6 -9 -19 -20 -31 -11 -12 -20 -28 -20 -35 0 -7 -4 -13 -10 -13 -5 0 -10 -4 -10 -9 0 -6 -11 -22 -25 -37 -14 -15 -25 -32 -25 -38 0 -6 -9 -17 -20 -24 -11 -7 -20 -20 -20 -30 0 -9 -10 -22 -22 -27 -13 -6 -24 -20 -26 -32 -2 -13 -9 -23 -16 -23 -20 0 -66 -54 -66 -78 0 -16 6 -22 23 -22 25 0 77 47 77 71 0 8 10 19 23 24 12 6 23 20 25 31 2 12 12 24 23 27 10 3 22 13 25 22 4 10 18 29 30 43 13 14 24 31 24 38 0 8 5 14 10 14 6 0 10 5 10 10 0 6 9 19 20 30 11 11 20 27 20 35 0 8 5 15 10 15 6 0 10 7 10 15 0 8 4 15 8 15 11 0 123 217 165 320 75 184 130 378 166 579 28 151 27 171 -1 171 -21 0 -24 -8 -41 -113z M3030 3262 c0 -54 62 -232 81 -232 5 0 9 -7 9 -15 0 -8 5 -15 10 -15 6 0 10 -7 10 -15 0 -8 7 -15 15 -15 8 0 15 -8 15 -18 0 -23 60 -82 83 -82 9 0 17 -6 17 -14 0 -30 186 -106 262 -106 23 0 28 4 28 25 0 19 -5 25 -22 25 -37 0 -118 28 -175 60 -29 17 -60 30 -68 30 -8 0 -15 6 -15 13 0 16 -62 77 -78 77 -7 0 -12 9 -12 20 0 11 -4 20 -10 20 -5 0 -10 6 -10 14 0 8 -3 16 -7 18 -19 8 -83 175 -83 215 0 18 -5 23 -25 23 -21 0 -25 -5 -25 -28z M3670 2765 c0 -19 -4 -35 -10 -35 -29 0 -134 -265 -146 -369 -6 -60 -6 -61 18 -61 23 0 26 5 32 49 12 88 118 347 148 359 4 2 8 12 8 23 0 10 7 19 15 19 9 0 15 9 15 25 0 23 -4 25 -40 25 -39 0 -40 -1 -40 -35z M3500 2220 c0 -47 2 -50 25 -50 23 0 25 3 25 50 0 47 -2 50 -25 50 -23 0 -25 -3 -25 -50z M3510 2122 c0 -68 75 -272 100 -272 6 0 10 -5 10 -12 0 -16 51 -68 67 -68 7 0 13 -4 13 -9 0 -13 75 -41 110 -41 25 0 30 4 30 25 0 18 -5 25 -20 25 -102 0 -260 216 -260 357 0 18 -5 23 -25 23 -21 0 -25 -5 -25 -28z M4192 1908 c-19 -147 -17 -178 13 -178 23 0 25 3 25 53 0 28 7 83 15 122 20 93 20 95 -13 95 -27 0 -28 -1 -40 -92z M6864 1913 c3 -32 8 -88 11 -125 6 -64 8 -68 31 -68 25 0 25 0 18 82 l-7 82 34 -23 c19 -12 45 -27 59 -34 14 -6 31 -17 38 -24 16 -15 216 -125 349 -192 432 -216 957 -374 1351 -407 82 -7 82 -7 82 17 0 24 -3 25 -117 37 -456 49 -997 236 -1511 523 -67 38 -127 69 -132 69 -4 0 -10 4 -12 8 -4 12 -125 92 -137 92 -6 0 -11 5 -11 10 0 6 -12 10 -26 10 -26 0 -26 -1 -20 -57z M4103 1903 c-13 -8 -23 -24 -23 -34 0 -13 -7 -19 -21 -19 -11 0 -32 -9 -46 -20 -14 -11 -32 -20 -40 -20 -8 0 -26 -9 -40 -20 -14 -11 -36 -20 -49 -20 -19 0 -24 -5 -24 -26 0 -26 1 -27 51 -21 28 4 57 11 65 17 7 7 32 21 56 33 28 15 44 30 46 45 2 14 10 22 23 22 32 0 69 30 69 56 0 29 -32 32 -67 7z M10662 1857 c-18 -18 -32 -38 -32 -45 0 -7 -9 -12 -20 -12 -11 0 -25 -9 -32 -20 -7 -11 -18 -20 -23 -20 -6 0 -28 -16 -49 -35 -21 -19 -40 -35 -43 -35 -8 0 -158 -104 -161 -112 -2 -4 -10 -8 -17 -8 -8 0 -20 -6 -27 -12 -21 -21 -306 -154 -398 -187 -156 -56 -446 -121 -537 -121 -29 0 -33 -3 -33 -25 0 -33 23 -33 212 -1 234 40 438 106 643 208 66 33 122 63 125 68 3 4 15 10 28 14 12 4 22 12 22 17 0 5 5 9 12 9 16 0 168 100 168 111 0 5 6 9 13 9 7 0 30 15 50 34 21 19 44 37 53 40 9 3 18 15 21 26 3 11 13 20 22 20 24 0 81 62 81 88 0 34 -40 28 -78 -11z M4180 1605 c0 -41 2 -45 25 -45 23 0 25 4 25 45 0 41 -2 45 -25 45 -23 0 -25 -4 -25 -45z M6880 1612 c0 -75 -102 -353 -147 -400 -7 -7 -13 -17 -13 -22 0 -5 -11 -21 -25 -36 -14 -15 -25 -32 -25 -38 0 -6 -9 -17 -20 -24 -11 -7 -20 -21 -20 -32 0 -11 -6 -20 -13 -20 -16 0 -107 -91 -107 -108 0 -7 -9 -12 -20 -12 -11 0 -23 -7 -26 -15 -4 -8 -13 -15 -20 -15 -8 0 -17 -7 -20 -15 -4 -8 -12 -15 -20 -15 -8 0 -14 -4 -14 -10 0 -5 -6 -10 -14 -10 -8 0 -21 -6 -28 -13 -35 -33 -244 -107 -305 -107 -18 0 -23 -6 -23 -25 0 -22 4 -25 33 -25 72 0 307 77 307 100 0 4 11 11 25 14 14 4 25 11 25 16 0 6 7 10 15 10 8 0 15 5 15 10 0 6 7 10 15 10 7 0 18 6 22 13 4 8 16 16 26 20 9 3 17 13 17 22 0 8 8 15 18 15 22 0 112 90 112 112 0 8 9 18 20 21 11 3 23 13 26 22 4 10 18 29 30 43 13 14 24 31 24 38 0 8 4 14 10 14 5 0 12 11 16 25 3 14 10 25 14 25 28 0 127 276 136 381 7 69 7 69 -20 69 -24 0 -26 -4 -26 -38z M4190 1526 c0 -69 113 -356 140 -356 4 0 10 -9 13 -21 3 -11 15 -23 26 -26 12 -3 21 -13 21 -22 0 -21 41 -61 62 -61 9 0 18 -8 20 -17 3 -10 18 -25 34 -33 16 -8 31 -18 34 -21 26 -32 209 -95 305 -105 65 -7 65 -7 65 20 0 22 -4 26 -27 26 -83 1 -287 77 -342 128 -13 12 -32 22 -42 22 -11 0 -19 6 -19 13 0 16 -42 57 -58 57 -7 0 -12 9 -12 19 0 11 -8 26 -18 33 -28 20 -119 214 -139 295 -16 64 -21 73 -40 73 -18 0 -23 -6 -23 -24z M8840 1215 c0 -24 2 -25 75 -25 73 0 75 1 75 25 0 24 -2 25 -75 25 -73 0 -75 -1 -75 -25z M9140 1215 c0 -24 3 -25 60 -25 57 0 60 1 60 25 0 24 -3 25 -60 25 -57 0 -60 -1 -60 -25z M5452 1107 c-12 -13 -22 -31 -22 -40 0 -10 -8 -17 -19 -17 -10 0 -46 -19 -80 -41 -76 -51 -184 -88 -273 -96 -64 -6 -68 -7 -68 -31 0 -25 0 -25 81 -19 140 11 359 106 359 156 0 36 57 33 64 -3 9 -43 48 -136 58 -136 4 0 8 -7 8 -15 0 -22 72 -95 93 -95 9 0 17 -7 17 -15 0 -8 7 -15 15 -15 8 0 15 -4 15 -9 0 -14 103 -50 165 -57 54 -7 55 -6 55 20 0 21 -5 26 -24 26 -30 0 -170 49 -174 61 -2 5 -12 9 -23 9 -10 0 -19 6 -19 13 0 7 -8 20 -17 28 -63 55 -113 156 -127 252 -8 56 -45 66 -84 24z"/>
<path fill="#0d0c12" d="M7590 9570 c-287 -30 -648 -124 -959 -251 l-94 -39 -39 36 c-130 117 -378 110 -630 -17 -275 -138 -419 -339 -354 -494 17 -40 17 -40 -14 -66 -17 -15 -44 -29 -59 -32 -84 -17 -467 -311 -661 -507 -766 -776 -1067 -1594 -919 -2502 38 -238 154 -644 254 -893 19 -47 35 -90 35 -94 0 -5 -51 -29 -112 -55 -278 -116 -365 -220 -313 -376 55 -164 234 -202 448 -93 27 13 51 23 53 21 14 -15 -57 -312 -97 -403 -57 -131 -194 -249 -280 -243 -107 8 -112 144 -14 338 47 93 18 180 -69 207 -119 37 -381 -98 -528 -271 -372 -442 -152 -1059 378 -1061 l110 0 -32 -45 c-234 -329 -208 -829 51 -963 58 -30 163 -29 204 1 17 12 37 22 45 22 17 0 132 87 195 148 24 23 45 42 46 42 1 0 -5 -28 -12 -62 -59 -267 18 -610 179 -791 265 -301 761 -329 1049 -60 56 53 55 53 64 -7 56 -375 503 -486 898 -223 320 213 525 608 487 938 -6 55 -13 117 -14 137 l-4 37 89 -59 c238 -160 629 -353 939 -463 940 -333 1787 -274 2465 173 1024 676 1365 1883 944 3345 -93 322 -210 652 -238 672 -35 24 -27 62 17 79 238 93 394 371 353 632 -21 135 -68 227 -163 320 -55 53 -150 122 -168 122 -6 0 -28 9 -48 19 -20 11 -63 28 -95 37 l-57 18 162 81 c875 436 1342 1105 1109 1590 -95 199 -277 317 -596 387 -105 23 -456 17 -595 -10 -435 -85 -1102 -345 -1263 -491 -29 -26 -29 -26 -43 -6 -8 11 -49 72 -91 135 -489 733 -1238 1120 -2013 1040z m440 -381 c440 -75 906 -389 1186 -799 17 -25 52 -75 78 -112 l47 -67 -70 -36 c-281 -141 -760 -463 -1346 -905 -404 -305 -720 -541 -1433 -1068 -108 -80 -127 -91 -135 -76 -16 29 -206 592 -252 749 -210 711 -243 1270 -100 1675 20 58 42 120 48 139 12 36 115 91 357 192 52 22 118 51 146 64 28 14 58 25 66 25 8 0 61 16 118 36 558 192 930 244 1290 183z m-2293 -651 c-86 -199 -102 -262 -118 -444 -42 -490 163 -1404 451 -2013 33 -70 60 -131 60 -137 0 -9 -38 -37 -365 -267 -412 -289 -1231 -817 -1269 -817 -6 0 -74 215 -125 399 -250 886 -151 1624 310 2308 188 278 515 605 819 818 30 21 70 56 89 77 46 53 164 114 148 76z m5748 -2 c253 -46 360 -146 353 -330 -7 -190 -195 -446 -488 -663 -41 -31 -97 -73 -125 -93 -93 -70 -394 -240 -423 -240 -3 0 2 8 10 18 111 127 162 419 96 553 -16 31 -28 67 -28 81 0 99 -156 182 -299 159 -156 -24 -474 -159 -706 -301 -37 -22 -69 -40 -71 -40 -5 0 -347 -208 -438 -267 -41 -27 -94 -60 -118 -75 -24 -14 -101 -64 -173 -110 -516 -334 -658 -420 -920 -553 -298 -151 -618 -272 -910 -344 -112 -27 -145 -32 -145 -21 0 14 148 110 170 110 11 0 61 30 112 67 99 71 363 267 438 325 439 341 1055 774 1395 981 77 47 168 104 203 126 35 23 68 41 75 41 33 1 272 137 275 157 3 21 27 33 72 33 14 0 45 11 69 25 23 14 49 25 56 25 7 0 39 12 71 26 107 48 248 105 294 118 25 8 86 28 135 46 93 32 116 38 325 91 259 64 525 85 695 55z m-1913 -1570 c237 -115 379 -151 593 -151 l141 0 24 -45 c220 -418 645 -1690 730 -2185 5 -27 16 -90 25 -140 167 -941 -41 -1759 -582 -2286 -621 -606 -1462 -765 -2410 -458 -440 142 -857 350 -1128 562 -151 118 -412 413 -460 522 -51 114 -158 143 -240 65 -138 -132 -492 -142 -775 -22 -560 236 -870 918 -641 1409 65 137 184 271 287 322 27 14 96 68 154 121 58 53 130 116 160 140 l55 43 6 -84 c21 -294 240 -554 475 -567 82 -4 82 -4 108 -58 85 -173 249 -131 316 81 93 295 -38 630 -303 779 l-67 37 49 48 c128 125 62 285 -122 293 -31 1 -57 3 -57 4 0 1 53 39 118 85 221 156 327 233 497 359 325 241 274 214 379 200 216 -28 692 47 1051 166 445 147 821 350 1320 713 83 60 153 110 157 110 5 1 68 -28 140 -63z M9919 6615 c-165 -41 -375 -186 -399 -275 -33 -123 89 -182 212 -102 157 102 310 149 404 124 94 -25 151 -5 180 63 57 138 -171 247 -397 190z M7966 6035 c-278 -70 -643 -388 -840 -731 -55 -95 -64 -135 -42 -187 36 -87 132 -84 206 5 350 421 613 625 818 635 113 5 172 50 172 133 0 119 -147 187 -314 145z M10055 5843 c-121 -30 -162 -188 -106 -407 64 -250 155 -366 289 -366 115 0 168 82 166 260 -3 333 -157 559 -349 513z M9320 5323 c-136 -69 -78 -197 226 -498 222 -221 240 -249 209 -330 -10 -29 -32 -57 -58 -78 -114 -90 -137 -140 -100 -214 109 -222 520 96 478 370 -25 166 -108 266 -430 522 -83 66 -146 128 -171 167 -43 67 -98 89 -154 61z M8084 5155 c-92 -42 -129 -125 -121 -274 18 -385 255 -658 438 -504 152 128 44 666 -155 770 -40 21 -125 26 -162 8z M5469 4067 c-243 -90 -335 -467 -114 -467 69 0 95 25 130 123 36 100 137 108 244 19 33 -27 33 -27 22 -105 -32 -231 117 -451 277 -407 116 31 137 159 42 252 -57 56 -64 82 -46 198 19 123 6 155 -98 253 -129 122 -330 181 -457 134z M10019 3845 c-27 -27 -1270 -285 -1373 -285 -56 0 -109 -47 -127 -113 -24 -89 201 -448 380 -605 220 -195 390 -265 641 -266 383 -2 608 221 664 656 25 198 26 510 0 545 -42 57 -155 99 -185 68z m-124 -397 c-2 -35 -7 -102 -11 -151 -7 -100 -3 -96 -109 -120 -230 -54 -441 -36 -690 58 -172 65 -212 102 -112 104 119 3 602 87 797 140 142 39 131 42 125 -31z"/>
</g>
</svg>
